<svg width="163" height="70" viewBox="0 0 163 70" fill="none" xmlns="http://www.w3.org/2000/svg">
<path fill-rule="evenodd" clip-rule="evenodd" d="M80.3672 28.3217H75.8069L78.0875 22.5401L80.3672 28.3217ZM81.819 32.006L83.0099 35H87.6488L80.1857 17.5H76.0143L68.5254 35H73.1902L74.356 32.006H81.819Z" fill="black"/>
<path fill-rule="evenodd" clip-rule="evenodd" d="M94.1109 26.4951V21.7571H97.3281C99.0003 21.7571 100.339 22.6679 100.339 24.1005C100.339 25.5583 99.0003 26.4951 97.3281 26.4951H94.1109ZM96.8131 30.4526L100.57 35.5813H105.822L101.317 29.5939C103.402 28.5259 104.663 26.5733 104.663 24.1005C104.663 20.2733 101.755 17.8778 97.4311 17.8778H89.7607V35.5813H94.1109V30.4526H96.8131Z" fill="black"/>
<path fill-rule="evenodd" clip-rule="evenodd" d="M112.597 21.7048H121.476V17.8776H108.248V35.5811H121.476V31.7538H112.597V28.682H120.344V24.9329H112.597V21.7048Z" fill="black"/>
<path fill-rule="evenodd" clip-rule="evenodd" d="M141.601 17.8779H137.252V27.8489L128.809 17.8779H125.489V35.5814H129.839V25.8701L138.229 35.5814H141.601V17.8779Z" fill="black"/>
<path fill-rule="evenodd" clip-rule="evenodd" d="M155.291 28.786H150.761L153.026 22.9028L155.291 28.786ZM156.732 32.5351L157.916 35.5817H162.523L155.11 17.774H150.967L143.529 35.5817H148.162L149.32 32.5351H156.732Z" fill="black"/>
<mask id="mask0_1340_481" style="mask-type:alpha" maskUnits="userSpaceOnUse" x="0" y="17" width="27" height="37">
<path d="M0 53.0077V17.774H26.8306V53.0077H0Z" fill="white"/>
</mask>
<g mask="url(#mask0_1340_481)">
<path fill-rule="evenodd" clip-rule="evenodd" d="M21.5876 20.0214H5.2434C4.41376 20.0214 3.65895 20.3657 3.11015 20.92H3.10613C2.56054 21.471 2.22257 22.2353 2.22257 23.0778V47.7039C2.22257 48.5456 2.56054 49.3107 3.10613 49.8617H3.11015C3.65895 50.416 4.41376 50.7603 5.2434 50.7603H21.5876C22.4204 50.7603 23.176 50.4168 23.7208 49.8658L23.7248 49.8617C24.2704 49.3107 24.6092 48.5456 24.6092 47.7039V23.0778C24.6092 22.2353 24.2704 21.471 23.7248 20.92L23.7208 20.9159C23.176 20.364 22.4204 20.0214 21.5876 20.0214ZM5.2434 17.774H21.5876C23.0256 17.774 24.3364 18.3707 25.2876 19.3311L25.2916 19.3352C26.2419 20.2973 26.831 21.6232 26.831 23.0778V47.7039C26.831 49.1585 26.2419 50.4836 25.2916 51.4465L25.2876 51.4506C24.3364 52.411 23.0256 53.0077 21.5876 53.0077H5.2434C3.80058 53.0077 2.48973 52.4102 1.53938 51.4506C0.590647 50.4852 0 49.1593 0 47.7039V23.0778C0 21.6224 0.590647 20.2957 1.5418 19.3336C2.48973 18.3707 3.80058 17.774 5.2434 17.774Z" fill="#D52B1E"/>
</g>
<path fill-rule="evenodd" clip-rule="evenodd" d="M32.924 12.5621H14.9865C13.5711 12.5621 12.2828 13.149 11.3485 14.094H11.3445C10.4126 15.0366 9.83487 16.3397 9.83487 17.7739V53.0075C9.83487 54.4425 10.4126 55.7448 11.3445 56.6866L11.3485 56.6914C12.2803 57.634 13.5679 58.2184 14.9865 58.2184H32.924C34.3427 58.2184 35.6302 57.634 36.562 56.6914V56.6866C37.4963 55.7424 38.0757 54.44 38.0757 53.0075V17.7739C38.0757 16.3421 37.4963 15.039 36.562 14.094C35.6278 13.149 34.3395 12.5621 32.924 12.5621ZM14.9865 10.3148H32.924C34.9527 10.3148 36.7962 11.1548 38.1328 12.506C39.4678 13.8563 40.2982 15.7219 40.2982 17.7739V53.0075C40.2982 55.0595 39.4678 56.9242 38.1328 58.2762C36.7922 59.6266 34.9486 60.4657 32.924 60.4657H14.9865C12.9627 60.4657 11.12 59.6274 9.78257 58.2762L9.77855 58.2721C8.44195 56.9185 7.6123 55.0546 7.6123 53.0075V17.7739C7.6123 15.726 8.44275 13.8612 9.78016 12.5076C11.1135 11.1548 12.9579 10.3148 14.9865 10.3148Z" fill="#D52B1E"/>
<path fill-rule="evenodd" clip-rule="evenodd" d="M47.3316 3.02882H25.736C23.7556 3.02882 21.9547 3.84928 20.6487 5.16952C19.3426 6.49056 18.5315 8.31219 18.5315 10.3153V60.4654C18.5315 62.4686 19.3426 64.291 20.6487 65.6121C21.9547 66.9323 23.7556 67.7528 25.736 67.7528H47.3316C49.3111 67.7528 51.1128 66.9323 52.4181 65.6121C53.7241 64.291 54.5352 62.4686 54.5352 60.4654V10.3153C54.5352 8.31219 53.7241 6.49056 52.4181 5.16952C51.1128 3.84928 49.3111 3.02882 47.3316 3.02882ZM25.736 0.781494H47.3316C49.9243 0.781494 52.2813 1.85428 53.9888 3.58149C55.6964 5.3087 56.757 7.69196 56.757 10.3153V60.4654C56.757 63.0888 55.6964 65.4729 53.9888 67.2001C52.2813 68.9273 49.9243 70.0001 47.3316 70.0001H25.736C23.1424 70.0001 20.7855 68.9273 19.0787 67.2001C17.3703 65.4737 16.3105 63.0888 16.3105 60.4654V10.3153C16.3105 7.69196 17.3703 5.30789 19.0787 3.58149C20.7863 1.85428 23.1424 0.781494 25.736 0.781494Z" fill="#D52B1E"/>
<path fill-rule="evenodd" clip-rule="evenodd" d="M141.601 44.7423V42.9606H132.4V45.7581H136.991L132.318 51.3752V53.0121H141.601V50.2349H137.073L141.601 44.7423ZM125.187 50.4628C128.155 50.4628 128.268 45.4684 125.187 45.4684C123.835 45.4684 122.851 46.5876 122.851 47.9762C122.851 49.3648 123.835 50.4628 125.187 50.4628ZM130.576 42.9606V53.0121H127.57L127.257 52.4529C126.52 52.9299 125.618 53.2197 124.531 53.2197C121.847 53.2197 119.593 50.9609 119.593 47.9762C119.593 44.9702 121.847 42.7319 124.531 42.7319C125.618 42.7319 126.52 43.0224 127.257 43.4994L127.57 42.9606H130.576ZM113.241 49.5308L115.618 53.0121H119.593L115.495 47.0637L119.265 42.9606H115.31L111.847 46.7316V42.9606H108.527V53.0121H111.847V51.0431L113.241 49.5308ZM105.465 42.9606C104.672 43.1616 104.02 43.5385 103.446 44.0374V42.9606H100.126V53.0121H103.446V47.2705C104.225 46.4842 105.248 46.0479 106.868 45.9861V42.9606H105.465ZM92.4828 50.4628C91.1301 50.4628 90.1467 49.3648 90.1467 47.9762C90.1467 46.5876 91.1301 45.4684 92.4828 45.4684C95.4457 45.4684 95.4915 50.4628 92.4828 50.4628ZM97.8718 42.9606H94.8663L94.5525 43.4994C93.8145 43.0224 92.9133 42.7319 91.827 42.7319C89.1433 42.7319 86.8885 44.9702 86.8885 47.9762C86.8885 50.9609 89.1433 53.2197 91.827 53.2197C92.9133 53.2197 93.8145 52.9299 94.5525 52.4529L94.8663 53.0121H97.8718V42.9606ZM81.1309 42.6497C79.6551 42.6497 78.6509 43.0631 77.6064 43.9959C76.8685 43.1258 75.8022 42.6497 74.5525 42.6497C73.4461 42.6497 72.7492 42.9809 72.0733 43.5613V42.9606H68.7539V53.0121H72.0733V46.5876C72.5649 45.9445 73.0566 45.6963 73.5692 45.6963C74.6555 45.6963 75.3516 46.38 75.3516 47.8101V53.0121H78.6718V47.2705C78.6718 47.023 78.6509 46.7731 78.6307 46.5249C79.1224 45.9234 79.635 45.6963 80.1468 45.6963C81.2532 45.6963 81.93 46.38 81.93 47.8101V53.0121H85.2695V47.2705C85.2695 44.4111 83.508 42.6497 81.1309 42.6497Z" fill="black"/>
</svg>
