<svg width="238" height="70" viewBox="0 0 238 70" fill="none" xmlns="http://www.w3.org/2000/svg">
<path d="M25.6807 24.236V46.2387H29.2395V37.1467C29.2395 37.1467 30.4518 35.6746 35.3009 36.2808C36.1422 36.3861 36.9904 36.4266 37.838 36.402L42.2541 36.2894V46.2387H46.8521V22.9198H42.003V32.159H37.9852C37.0855 32.1921 36.1846 32.1486 35.2922 32.0292C33.302 31.6964 31.2613 31.8358 29.3348 32.4361L29.4474 22.9198H25.6807V24.236Z" fill="#C19117"/>
<path d="M67.385 22.9198H62.8823V24.0022C63.0602 24.1154 63.2097 24.268 63.3193 24.4481C63.4289 24.6283 63.4957 24.8312 63.5144 25.0413C63.6166 25.7135 63.4786 26.4003 63.1248 26.9809L52.3096 45.546L57.7994 45.5979C63.7742 41.2684 72.4246 42.1862 72.4246 42.1862L74.4768 45.9443H80.1052L67.385 22.9198ZM60.9946 39.9782L66.1901 30.1328L70.433 38.662C70.433 38.662 63.5577 38.2377 60.9946 39.9782Z" fill="#C19117"/>
<path d="M85.3652 22.9198V46.2387H102.354V39.9782H89.7121L89.5129 22.9198H85.3652Z" fill="#C19117"/>
<path d="M108.653 22.9198V46.2387H125.651V39.9782H113L112.801 22.9198H108.653Z" fill="#C19117"/>
<path d="M132.203 22.9198H149.807V27.8555H136.351V33.5878C136.351 33.5878 137.217 32.0724 140.68 32.185H147.123L147.053 36.6618H140.706C139.916 36.5911 139.12 36.6923 138.373 36.9584C137.625 37.2244 136.945 37.6491 136.377 38.2031V41.2338H149.807V46.2387H132.203V22.9198Z" fill="#C19117"/>
<path d="M219.411 22.9198H236.998V27.8555H223.559V33.5878C223.559 33.5878 224.364 32.0465 227.888 32.1764H234.365L234.296 36.6531H227.975C225.949 36.6531 225.1 36.5578 223.645 38.1944V41.2251H237.015V46.23H219.411V22.9198Z" fill="#C19117"/>
<path d="M156.802 22.9198H162.335L175.878 38.0386V22.9198H181.116V46.2387H175.479L164.214 31.8127L163.132 31.778L163.331 46.2387H158.187L157.988 25.682L156.802 22.9198Z" fill="#C19117"/>
<path d="M207.398 29.3452L210.637 25.5352C210.637 25.5352 197.847 19.0409 190.305 27.3623C190.305 27.3623 184.469 33.9258 189.742 41.4939C191.656 44.2301 194.713 45.6502 197.891 46.2564C201.302 46.9145 206.117 46.8279 210.065 42.8793L210.169 32.8002L201.276 32.9993L203.744 37.225H206.342L206.238 40.3855C206.238 40.3855 200.878 42.9832 196.401 40.4894C195.18 39.7931 194.182 38.7642 193.522 37.5224C192.863 36.2807 192.57 34.8773 192.678 33.4756C192.851 31.3887 193.89 28.9988 197.345 27.7346C197.319 27.7606 204.142 25.6824 207.398 29.3452Z" fill="#C19117"/>
<path d="M54.5582 54.5435C54.5582 54.5435 42.678 61.6267 35.058 61.6267C30.7537 61.6304 26.5128 60.5893 22.6996 58.5927C18.8864 56.5961 15.6149 53.7037 13.166 50.164C10.7171 46.6242 9.16407 42.5429 8.64028 38.2706C8.1165 33.9983 8.63763 29.6627 10.1589 25.6362C11.6802 21.6097 14.1561 18.0127 17.3741 15.1541C20.592 12.2954 24.4558 10.2607 28.6335 9.22456C32.8112 8.18843 37.178 8.18192 41.3588 9.20557C45.5396 10.2292 49.4094 12.2524 52.6359 15.1014L62.5159 13.3696C58.8493 8.70532 54.0572 5.04965 48.5897 2.74602C43.1222 0.442389 37.1589 -0.433575 31.2599 0.200414C25.361 0.834404 19.72 2.95754 14.8669 6.37036C10.0138 9.78319 6.10789 14.3737 3.51614 19.7106C0.924388 25.0475 -0.268156 30.9557 0.0505371 36.8801C0.36923 42.8044 2.1887 48.5506 5.33802 53.5787C8.48734 58.6067 12.8631 62.7517 18.0543 65.6242C23.2455 68.4967 29.0817 70.0025 35.0147 70C46.2715 70 57.5716 64.4322 63.9707 56.1455L54.5582 54.5435Z" fill="#C19117"/>
</svg>
