<svg width="309" height="69" viewBox="0 0 309 69" fill="none" xmlns="http://www.w3.org/2000/svg">
<path d="M286.404 47.1187H308.662V39.539H295.814V33.0398H307.181V25.2234H295.814V19.432H308.662V11.7585H286.404V47.1187Z" fill="#22201E"/>
<path d="M281.872 47.1656V11.8054H272.463V28.4976L255.507 11.8054H251.684V47.1656H261.095V30.4265L278.004 47.1656H281.872Z" fill="#22201E"/>
<path d="M190.299 11.8054H159.682V21.1265H174.01L158.774 47.1187H188.913V37.8421H175.063L190.299 11.8054Z" fill="#22201E"/>
<path d="M18.6822 28.1437V34.3593H25.6062C24.1259 36.4781 21.5003 37.8421 18.6822 37.8421C14.2863 37.8421 10.2279 34.3125 10.2279 29.4609C10.2279 24.5882 14.1913 21.0351 18.6822 21.0351C21.1177 21.0351 23.1232 21.9843 24.651 23.4046L31.2899 16.8914C28.0441 13.7367 23.6008 11.7585 18.6822 11.7585C8.79505 11.7585 0.818359 19.6687 0.818359 29.4609C0.818359 39.2085 8.79505 47.1187 18.6822 47.1187C28.5693 47.1187 36.5935 39.2085 36.5935 29.4609V28.1437H18.6822ZM40.3193 29.5101C40.3193 39.3023 48.296 47.1656 58.1831 47.1656C68.0702 47.1656 76.0944 39.3023 76.0944 29.5101C76.0944 19.7156 68.0702 11.7585 58.1831 11.7585C48.296 11.7585 40.3193 19.7156 40.3193 29.5101ZM66.7324 29.4609C66.7324 34.0992 62.9116 37.9359 58.1831 37.9359C53.5021 37.9359 49.6812 34.0992 49.6812 29.4609C49.6812 24.7687 53.5021 20.9859 58.1831 20.9859C62.9116 20.9859 66.7324 24.7687 66.7324 29.4609ZM81.2055 29.5101C81.2055 39.3023 89.1822 47.1656 99.0693 47.1656C108.956 47.1656 116.981 39.3023 116.981 29.5101C116.981 19.7156 108.956 11.7585 99.0693 11.7585C89.1822 11.7585 81.2055 19.7156 81.2055 29.5101ZM107.619 29.4609C107.619 34.0992 103.798 37.9359 99.0693 37.9359C94.3883 37.9359 90.5674 34.0992 90.5674 29.4609C90.5674 24.7687 94.3883 20.9859 99.0693 20.9859C103.798 20.9859 107.619 24.7687 107.619 29.4609ZM123.524 47.1187H136.802C146.689 47.1187 154.714 39.1921 154.714 29.4375C154.714 19.6851 146.689 11.7585 136.802 11.7585H123.524V47.1187ZM132.886 21.1429H136.85C141.531 21.1429 145.352 24.9093 145.352 29.4843C145.352 34.1085 141.531 37.875 136.85 37.875H132.886V21.1429Z" fill="#E31E24"/>
<path d="M150.063 17.7188C146.787 14.1563 142.058 11.918 136.802 11.918H123.524V47.1187L132.886 36.7477V21.3023H136.85C139.666 21.3023 142.17 22.6664 143.719 24.7477L150.063 17.7188Z" fill="#D1212C"/>
<path d="M93.8157 36.1476C91.8292 34.589 90.5461 32.1726 90.5461 29.4867C90.5461 24.7921 94.367 21.0117 99.048 21.0117C101.453 21.0117 103.622 21.989 105.174 23.5664L111.392 16.6757C108.179 13.6453 103.833 11.782 99.048 11.782C89.1632 11.782 81.1865 19.739 81.1865 29.5335C81.1865 34.9898 83.6625 39.8437 87.5641 43.0757L93.8157 36.1476Z" fill="#D1212C"/>
<path d="M18.6822 28.1437V33.7078L23.7053 28.1437H18.6822ZM15.5148 37.2187C12.5137 36 10.2279 33.1031 10.2279 29.4609C10.2279 24.5882 14.1913 21.0351 18.6822 21.0351C21.1177 21.0351 23.1232 21.9843 24.651 23.4046L31.2899 16.8914C28.0441 13.7367 23.6008 11.7585 18.6822 11.7585C8.79505 11.7585 0.818359 19.6687 0.818359 29.4609C0.818359 35.7187 4.10456 41.2171 9.07306 44.3531L15.5148 37.2187Z" fill="#D1212C"/>
<path d="M52.9509 36.1242C50.9621 34.5656 49.6813 32.1468 49.6813 29.4609C49.6813 24.7687 53.5021 20.9859 58.1831 20.9859C60.5854 20.9859 62.7548 21.9656 64.3064 23.5429L70.5272 16.6523C67.3123 13.6218 62.9663 11.7585 58.1831 11.7585C48.296 11.7585 40.3193 19.7156 40.3193 29.5101C40.3193 34.964 42.7953 39.8203 46.6969 43.0523L52.9509 36.1242Z" fill="#D1212C"/>
<path d="M19.1811 28.6359V33.8671H26.5543L26.0173 34.6382C25.2236 35.7726 24.1211 36.7054 22.8427 37.3476C21.5881 37.9781 20.1577 38.3343 18.6821 38.3343C16.2917 38.3343 13.9964 37.35 12.3283 35.6953C10.7482 34.1273 9.72884 31.9593 9.72884 29.4609C9.72884 26.9414 10.7339 24.7523 12.3165 23.1726V23.1703C13.9702 21.5226 16.2537 20.5429 18.6821 20.5429C19.9106 20.5429 21.0416 20.7726 22.0634 21.1781C23.0186 21.5578 23.8787 22.0898 24.6344 22.7296L30.5794 16.896C29.0421 15.4851 27.2505 14.3367 25.283 13.5375C23.2491 12.7101 21.0226 12.2507 18.6821 12.2507C13.8752 12.2507 9.534 14.1726 6.39512 17.2828C3.25624 20.3953 1.31731 24.6984 1.31731 29.4609C1.31731 34.2046 3.25862 38.4984 6.40225 41.6062C9.53875 44.707 13.8776 46.6265 18.6821 46.6265C23.4867 46.6265 27.8398 44.7046 30.9929 41.5968C34.1437 38.4914 36.0945 34.1999 36.0945 29.4609V28.6359H19.1811ZM18.1831 34.3593V27.6515H37.0924V29.4609C37.0924 34.4718 35.03 39.0093 31.6986 42.2929C28.3649 45.5765 23.7623 47.6109 18.6821 47.6109C13.6043 47.6109 9.016 45.5789 5.69654 42.2976C2.37232 39.0117 0.319336 34.4718 0.319336 29.4609C0.319336 24.4312 2.36994 19.882 5.68941 16.5914C9.01125 13.3007 13.6019 11.2664 18.6821 11.2664C21.1509 11.2664 23.5057 11.7539 25.6608 12.6304C27.9087 13.5445 29.9355 14.8851 31.6392 16.5398L31.998 16.889L31.6416 17.2382L25.0027 23.7515L24.6605 24.0867L24.3112 23.7609C23.558 23.0601 22.6812 22.4812 21.6927 22.0898C20.7898 21.7312 19.7823 21.525 18.6821 21.525C16.5246 21.525 14.4954 22.3992 13.0269 23.8617C11.6202 25.2656 10.7268 27.2132 10.7268 29.4609C10.7268 31.6851 11.6298 33.6117 13.034 35.0039C14.5168 36.4757 16.5579 37.35 18.6821 37.35C19.9985 37.35 21.2721 37.0335 22.3913 36.471C23.2182 36.0562 23.9619 35.5054 24.5726 34.8515H18.1831V34.3593ZM40.8182 29.5101C40.8182 34.2679 42.7548 38.5593 45.8913 41.6578C49.0302 44.7609 53.3737 46.6734 58.183 46.6734C62.9947 46.6734 67.3525 44.7585 70.5057 41.6507C73.6493 38.55 75.5954 34.2632 75.5954 29.5101C75.5954 24.7453 73.6446 20.4304 70.4914 17.3062C67.3407 14.1843 62.9876 12.2507 58.183 12.2507C53.3809 12.2507 49.042 14.182 45.9032 17.2992C42.7595 20.4234 40.8182 24.7429 40.8182 29.5101ZM45.1856 42.3515C41.8685 39.0726 39.8202 34.5375 39.8202 29.5101C39.8202 24.4757 41.8732 19.9101 45.1974 16.6078C48.5169 13.3101 53.1052 11.2664 58.183 11.2664C63.2632 11.2664 67.8658 13.3125 71.1971 16.6148C74.5309 19.9171 76.5933 24.4781 76.5933 29.5101C76.5933 34.5351 74.5356 39.0679 71.2114 42.3468C67.8777 45.6304 63.2703 47.6578 58.183 47.6578C53.1005 47.6578 48.5074 45.6328 45.1856 42.3515ZM67.2314 29.4609C67.2314 31.9195 66.2144 34.1671 64.5725 35.796C62.9353 37.4179 60.678 38.4281 58.183 38.4281C55.7071 38.4281 53.4593 37.4156 51.8292 35.7914C50.1945 34.1648 49.1822 31.9195 49.1822 29.4609C49.1822 26.9835 50.1897 24.7453 51.815 23.1257C53.4474 21.4992 55.7023 20.496 58.183 20.496C60.6851 20.496 62.9472 21.4968 64.5844 23.121C66.2215 24.7406 67.2314 26.9812 67.2314 29.4609ZM63.8668 35.1046C65.3281 33.6562 66.2334 31.6523 66.2334 29.4609C66.2334 27.2507 65.3352 25.2539 63.8786 23.8124C62.4244 22.3687 60.4095 21.4781 58.183 21.4781C55.9756 21.4781 53.9725 22.371 52.5255 23.8148V23.8171C51.0784 25.2609 50.1802 27.2554 50.1802 29.4609C50.1802 31.65 51.0831 33.6492 52.5373 35.0999C53.9868 36.5437 55.9851 37.446 58.183 37.446C60.4023 37.446 62.4102 36.546 63.8668 35.1046ZM81.7044 29.5101C81.7044 34.2679 83.641 38.5593 86.7775 41.6578C89.9164 44.7609 94.2599 46.6734 99.0692 46.6734C103.881 46.6734 108.239 44.7585 111.392 41.6507C114.536 38.55 116.482 34.2632 116.482 29.5101C116.482 24.7453 114.531 20.4304 111.378 17.3062C108.227 14.1843 103.874 12.2507 99.0692 12.2507C94.2671 12.2507 89.9282 14.182 86.7894 17.2992C83.6457 20.4234 81.7044 24.7429 81.7044 29.5101ZM86.0718 42.3515C82.7547 39.0726 80.7064 34.5375 80.7064 29.5101C80.7064 24.4757 82.7594 19.9101 86.0836 16.6078C89.4031 13.3101 93.9914 11.2664 99.0692 11.2664C104.149 11.2664 108.752 13.3125 112.083 16.6148C115.417 19.9171 117.48 24.4781 117.48 29.5101C117.48 34.5351 115.422 39.0679 112.098 42.3468C108.764 45.6304 104.157 47.6578 99.0692 47.6578C93.9867 47.6578 89.3936 45.6328 86.0718 42.3515ZM108.118 29.4609C108.118 31.9195 107.101 34.1671 105.459 35.796C103.822 37.4179 101.564 38.4281 99.0692 38.4281C96.5933 38.4281 94.3455 37.4156 92.7154 35.7914C91.0807 34.1648 90.0684 31.9195 90.0684 29.4609C90.0684 26.9835 91.0759 24.7453 92.7012 23.1257C94.3336 21.4992 96.5885 20.496 99.0692 20.496C101.571 20.496 103.833 21.4968 105.471 23.121C107.108 24.7406 108.118 26.9812 108.118 29.4609ZM104.753 35.1046C106.214 33.6562 107.12 31.6523 107.12 29.4609C107.12 27.2507 106.221 25.2539 104.765 23.8124C103.311 22.3687 101.296 21.4781 99.0692 21.4781C96.8618 21.4781 94.8587 22.371 93.4117 23.8148V23.8171C91.9622 25.2609 91.0664 27.2554 91.0664 29.4609C91.0664 31.65 91.9693 33.6492 93.4235 35.0999C94.873 36.5437 96.8713 37.446 99.0692 37.446C101.289 37.446 103.296 36.546 104.753 35.1046ZM124.023 46.6265H136.802C141.609 46.6265 145.962 44.6999 149.113 41.5921C152.264 38.4796 154.215 34.1812 154.215 29.4374C154.215 24.696 152.264 20.3976 149.113 17.2851C145.962 14.175 141.609 12.2507 136.802 12.2507H124.023V46.6265ZM136.802 47.6109H123.025V11.2664H136.802C141.882 11.2664 146.485 13.3031 149.819 16.5937C153.15 19.8843 155.213 24.4265 155.213 29.4374C155.213 34.4507 153.15 38.9929 149.819 42.2835C146.485 45.5742 141.882 47.6109 136.802 47.6109ZM132.886 20.6531H136.85C139.326 20.6531 141.574 21.6468 143.204 23.2476C144.836 24.8507 145.851 27.0609 145.851 29.4843C145.851 31.9312 144.841 34.1507 143.211 35.7585C141.578 37.3687 139.328 38.3671 136.85 38.3671H132.387V20.6531H132.886ZM136.85 21.6351H133.385V37.3828H136.85C139.055 37.3828 141.056 36.4968 142.505 35.0671C143.954 33.6374 144.853 31.6617 144.853 29.4843C144.853 27.3304 143.952 25.3664 142.5 23.9437C141.053 22.521 139.052 21.6351 136.85 21.6351Z" fill="#E73A40"/>
<path d="M220.117 0.813232C204.679 0.813232 192.164 13.1484 192.164 28.3664C192.164 35.9695 197.444 44.3648 203.413 51.4265L210.936 43.0921C205.905 40.0476 202.55 34.575 202.55 28.3289C202.55 18.764 210.415 11.0109 220.117 11.0109C225.72 11.0109 230.71 13.596 233.925 17.6226L240.877 9.92105C235.761 4.32886 228.357 0.813232 220.117 0.813232Z" fill="#D1212C"/>
<path d="M203.412 51.4266C211.18 60.6211 220.116 67.5586 220.116 67.5586C220.116 67.5586 248.067 45.8625 248.067 28.3665C248.067 21.2719 245.346 14.8055 240.877 9.92114L233.924 17.6227C236.279 20.5688 237.683 24.286 237.683 28.329C237.683 37.8915 229.818 45.6446 220.116 45.6446C216.749 45.6446 213.606 44.7118 210.935 43.0922L203.412 51.4266Z" fill="#E31E24"/>
<path d="M191.675 28.3664C191.675 20.6227 194.859 13.6148 200.006 8.54062C205.152 3.46641 212.262 0.328125 220.117 0.328125C224.226 0.328125 228.134 1.19062 231.665 2.73984C235.332 4.34766 238.592 6.69844 241.243 9.59766C243.555 12.1266 245.411 15.0773 246.675 18.3188C247.892 21.4406 248.56 24.8297 248.56 28.3664C248.56 46.0992 220.502 67.8727 220.421 67.9359L220.117 68.1727L219.813 67.9359C219.787 67.9148 210.836 60.968 203.035 51.7359C200.029 48.1781 197.197 44.2852 195.115 40.3195C193.015 36.3234 191.675 32.25 191.675 28.3664ZM200.699 9.225C195.731 14.1234 192.656 20.8898 192.656 28.3664C192.656 32.0836 193.954 36.0094 195.985 39.8766C198.036 43.7766 200.825 47.6133 203.788 51.1195C210.689 59.2875 218.497 65.6484 220.115 66.9398C223.123 64.5445 247.576 44.5898 247.576 28.3664C247.576 24.9422 246.934 21.6727 245.76 18.6633C244.544 15.5391 242.752 12.6914 240.514 10.2445C237.95 7.44375 234.806 5.17266 231.266 3.62109C227.861 2.12812 224.09 1.29609 220.117 1.29609C212.535 1.29609 205.668 4.32656 200.699 9.225ZM220.117 10.0289C209.864 10.0289 201.552 18.2203 201.552 28.3289C201.552 34.8305 204.995 40.5352 210.178 43.7812C213.053 45.5812 216.46 46.6289 220.117 46.6289C230.37 46.6289 238.682 38.4352 238.682 28.3289C238.682 23.9578 237.126 19.9477 234.531 16.8C231.128 12.6703 225.936 10.0289 220.117 10.0289ZM210.936 43.0945C205.906 40.0477 202.55 34.575 202.55 28.3266C202.55 18.7641 210.415 11.0109 220.117 11.0109C225.72 11.0109 230.71 13.5961 233.925 17.6227C236.28 20.5688 237.684 24.2859 237.684 28.3266C237.684 37.8914 229.819 45.6445 220.117 45.6445C216.753 45.6445 213.607 44.7117 210.936 43.0945Z" fill="#E73A40"/>
<path d="M1.31738 68.2032H3.50105L3.66976 63.2485L5.34018 66.1383H6.58766L8.09175 63.2485L8.2961 68.2032H10.5986L10.1994 59.7516H8.01334L5.96986 63.4383L3.88836 59.7516H1.7142L1.31738 68.2032ZM11.2401 68.2032H13.5925L14.158 66.4547H17.0237L17.5773 68.2032H20.0318L16.9999 59.7516H14.3885L11.2401 68.2032ZM14.6214 64.8211L15.6098 61.7156L16.5627 64.8211H14.6214ZM20.854 68.2032H23.1303V61.7274H26.9084V59.7516H20.854V68.2032ZM25.8035 68.2032H28.1559L28.7214 66.4547H31.5894L32.1406 68.2032H34.5976L31.5632 59.7516H28.9542L25.8035 68.2032ZM29.1847 64.8211L30.1756 61.7156L31.126 64.8211H29.1847ZM36.9238 64.7953H38.4778C39.0576 64.7953 39.5447 64.9711 39.5447 65.5922C39.5447 66.2016 39.0433 66.4664 38.1689 66.4664C37.1543 66.4664 36.5769 66.061 36.1135 65.6063L34.7758 66.8977C35.5742 67.8867 36.9357 68.4071 38.2734 68.4071C40.2908 68.4071 41.7426 67.5305 41.7426 65.9602C41.7426 65.0344 41.2175 64.2117 40.1482 63.9211C40.9727 63.6047 41.4599 62.8688 41.4599 61.9055C41.4599 60.3844 40.0722 59.536 38.3233 59.536C37.1543 59.536 35.8308 59.993 35.0086 61.043L36.344 62.2992C36.7955 61.8305 37.2969 61.4742 38.119 61.4742C38.9031 61.4742 39.2999 61.7414 39.2999 62.236C39.2999 62.7797 38.8247 62.9438 38.195 62.9438H36.9238V64.7953ZM50.4963 59.7516H48.4267L45.1357 64.5914V59.7516H42.8879V68.2032H44.8292L48.2485 63.2227V68.2032H50.4963V59.7516ZM52.0408 68.2032H54.3148V64.8961H57.4774V68.2032H59.7514V59.7516H57.4774V62.843H54.3148V59.7516H52.0408V68.2032ZM63.6221 68.2032H67.1174C69.0325 68.2032 70.2919 67.2657 70.2919 65.5289C70.2919 63.8438 69.149 62.8172 67.1815 62.8172H65.8461V61.6008H69.5862V59.7516H63.6221V68.2032ZM66.9249 64.5797C67.6568 64.5797 68.056 64.9477 68.056 65.4914C68.056 66.061 67.7352 66.4289 66.913 66.4289H65.8461V64.5797H66.9249ZM71.4895 68.2032H74.7923C76.7075 68.2032 77.9668 67.2141 77.9668 65.3391C77.9668 63.5649 76.7978 62.4375 74.8565 62.4375H73.7112V59.7516H71.4895V68.2032ZM74.5998 64.2C75.3198 64.2 75.7309 64.6547 75.7309 65.3016C75.7309 66.0117 75.3578 66.4289 74.5856 66.4289H73.7112V64.2H74.5998ZM79.0456 68.2032H81.3219V59.7516H79.0456V68.2032ZM84.9859 68.2032H87.286V61.7156H89.895V59.7516H82.3508V61.7156H84.9859V68.2032ZM94.6639 68.4071C97.2492 68.4071 99.124 66.5297 99.124 63.9586C99.124 61.3735 97.2492 59.5242 94.6639 59.5242C92.093 59.5242 90.2039 61.3735 90.2039 63.9586C90.2039 66.5297 92.093 68.4071 94.6639 68.4071ZM94.6639 66.3024C93.3286 66.3024 92.5563 65.25 92.5563 63.9586C92.5563 62.6649 93.3286 61.6149 94.6639 61.6149C96.0017 61.6149 96.7716 62.6649 96.7716 63.9586C96.7716 65.25 96.0017 66.3024 94.6639 66.3024ZM100.333 68.2032H103.817C106.117 68.2032 107.326 67.4672 107.326 65.7821C107.326 64.5282 106.259 63.9211 105.616 63.7172C106.131 63.5532 106.863 62.9063 106.863 61.9571C106.863 60.893 106.233 59.7516 103.817 59.7516H100.333V68.2032ZM102.557 63.1477V61.3477H103.546C104.035 61.3477 104.575 61.5516 104.575 62.2735C104.575 62.9203 104.073 63.1477 103.546 63.1477H102.557ZM102.557 66.6071V64.6055H103.715C104.24 64.6055 105.012 64.7438 105.012 65.5922C105.012 66.5063 104.24 66.6071 103.715 66.6071H102.557ZM112.404 68.4071C114.987 68.4071 116.864 66.5297 116.864 63.9586C116.864 61.3735 114.987 59.5242 112.404 59.5242C109.833 59.5242 107.942 61.3735 107.942 63.9586C107.942 66.5297 109.833 68.4071 112.404 68.4071ZM112.404 66.3024C111.066 66.3024 110.294 65.25 110.294 63.9586C110.294 62.6649 111.066 61.6149 112.404 61.6149C113.74 61.6149 114.512 62.6649 114.512 63.9586C114.512 65.25 113.74 66.3024 112.404 66.3024ZM125.682 59.7516H123.612L120.321 64.5914V59.7516H118.071V68.2032H120.013L123.432 63.2227V68.2032H125.682V59.7516ZM119.782 57.2672C119.782 58.4719 120.747 59.1563 121.89 59.1563C123.035 59.1563 124.012 58.4719 124.012 57.2672H122.481C122.481 57.6094 122.263 57.8508 121.89 57.8508C121.531 57.8508 121.312 57.6094 121.298 57.2672H119.782ZM131.672 68.2032H133.972V61.7156H136.581V59.7516H129.037V61.7156H131.672V68.2032ZM137.61 68.2032H144.05V66.2649H139.887V64.8211H143.087V62.9953H139.887V61.6899H143.781V59.7516H137.61V68.2032ZM144.539 68.2032H147.034L148.69 65.6063L150.401 68.2032H153.24L150.016 63.668L152.675 59.7516H150.144L148.769 61.943L147.341 59.7516H144.539L147.457 63.8813L144.539 68.2032ZM154.091 68.2032H156.365V64.8961H159.528V68.2032H161.802V59.7516H159.528V62.843H156.365V59.7516H154.091V68.2032ZM170.955 59.7516H168.885L165.594 64.5914V59.7516H163.346V68.2032H165.285L168.704 63.2227V68.2032H170.955V59.7516ZM174.773 64.8961H175.312C175.942 64.8961 176.199 65.2758 176.496 65.8711L177.677 68.2032H180.402L178.758 65.2008C178.359 64.4789 177.921 64.0336 177.152 63.7946C177.767 63.5414 178.268 63.1735 178.679 62.3625L180.017 59.7516H177.51L176.443 61.9172C176.135 62.5641 175.814 62.843 175.158 62.843H174.773V59.7516H172.497V68.2032H174.773V64.8961ZM188.913 59.7516H186.844L183.553 64.5914V59.7516H181.303V68.2032H183.244L186.663 63.2227V68.2032H188.913V59.7516Z" fill="#2B2A29"/>
</svg>
