<svg width="143" height="120" viewBox="0 0 143 120" fill="none" xmlns="http://www.w3.org/2000/svg">
<g filter="url(#filter0_b_1378_585)">
<path d="M42.3743 3.52341C43.0842 0.970628 45.3845 -0.814258 48.0336 -0.867836L75.498 -1.42329C78.0415 -1.47473 80.5441 -0.778766 82.6959 0.578365L105.931 15.2326C108.172 16.6461 109.22 19.3623 108.51 21.9151L97.8814 60.1371C95.7653 67.7467 90.3048 73.9818 83.0407 77.0831L59.9946 86.9222C56.5535 88.3913 52.5536 87.279 50.3649 84.2443L35.7069 63.9201C31.0867 57.514 29.6291 49.355 31.7452 41.7454L42.3743 3.52341Z" fill="#19CEC7"/>
</g>
<g filter="url(#filter1_b_1378_585)">
<path d="M72.1297 11.2109C73.925 8.16818 77.5035 6.66324 80.9338 7.50843L107.618 14.0831C109.138 14.4576 110.515 15.2699 111.577 16.4193L130.236 36.5966C132.634 39.1905 133.048 43.0505 131.252 46.0933L111.849 78.9802C107.835 85.7829 100.947 90.3922 93.128 91.5077L66.7367 95.2728C63.9586 95.6691 61.2768 94.0869 60.2803 91.4635L50.8139 66.5424C48.0092 59.1587 48.7129 50.9005 52.7264 44.0979L72.1297 11.2109Z" fill="#38CAC4" fill-opacity="0.2"/>
<path d="M107.737 13.5976L107.618 14.0831L107.737 13.5976L81.0534 7.02295C77.4087 6.12494 73.6065 7.72393 71.6991 10.9569L52.2958 43.8438C48.205 50.7773 47.4878 59.1943 50.3464 66.7199L59.8129 91.6411C60.8924 94.4831 63.7977 96.1972 66.8073 95.7678L93.1986 92.0027C101.168 90.8658 108.189 86.1678 112.28 79.2343L131.683 46.3473C133.59 43.1144 133.151 39.0131 130.603 36.2572L111.945 16.0798C110.815 14.8586 109.352 13.9955 107.737 13.5976Z" stroke="url(#paint0_linear_1378_585)"/>
</g>
<path fill-rule="evenodd" clip-rule="evenodd" d="M87.0143 42.9701C88.5198 40.4184 91.8089 39.5703 94.3606 41.0758C96.9123 42.5813 97.7604 45.8703 96.255 48.4221L87.0143 42.9701ZM84.4305 41.4456C86.7779 37.4669 91.9063 36.1446 95.885 38.492C99.8637 40.8394 101.186 45.9678 98.8388 49.9465L100.503 50.9285C103.768 52.855 104.854 57.0637 102.927 60.329L97.6948 69.1974C95.7683 72.4626 91.5595 73.5479 88.2943 71.6214L70.5575 61.1567C67.2923 59.2302 66.207 55.0214 68.1335 51.7562L73.3659 42.8878C75.2924 39.6226 79.5011 38.5373 82.7663 40.4638L84.4305 41.4456ZM80.1502 44.898L97.8869 55.3627C98.7032 55.8443 98.9746 56.8965 98.4929 57.7128L93.2606 66.5812C92.779 67.3975 91.7268 67.6688 90.9105 67.1872L73.1737 56.7225C72.3574 56.2409 72.0861 55.1887 72.5677 54.3724L77.8 45.504C78.2817 44.6877 79.3339 44.4164 80.1502 44.898Z" fill="url(#paint1_linear_1378_585)"/>
<path d="M87.0143 42.9701L86.9281 42.9192L86.8773 43.0054L86.9634 43.0562L87.0143 42.9701ZM96.255 48.4221L96.2041 48.5082L96.2903 48.559L96.3411 48.4729L96.255 48.4221ZM84.4305 41.4456L84.3796 41.5317L84.4658 41.5826L84.5166 41.4964L84.4305 41.4456ZM98.8388 49.9465L98.7526 49.8957L98.7018 49.9818L98.788 50.0327L98.8388 49.9465ZM100.503 50.9285L100.452 51.0146L100.503 50.9285ZM88.2943 71.6214L88.3451 71.5352L88.2943 71.6214ZM70.5575 61.1567L70.5067 61.2428L70.5575 61.1567ZM68.1335 51.7562L68.0474 51.7054L68.1335 51.7562ZM73.3659 42.8878L73.452 42.9386L73.3659 42.8878ZM98.4929 57.7128L98.4068 57.662L98.4929 57.7128ZM93.2606 66.5812L93.3467 66.632L93.2606 66.5812ZM90.9105 67.1872L90.9613 67.1011L90.9105 67.1872ZM73.1737 56.7225L73.1229 56.8086L73.1737 56.7225ZM94.4114 40.9897C91.8121 39.4561 88.4618 40.32 86.9281 42.9192L87.1004 43.0209C88.5779 40.5168 91.8056 39.6845 94.3098 41.1619L94.4114 40.9897ZM96.3411 48.4729C97.8746 45.8736 97.0107 42.5233 94.4114 40.9897L94.3098 41.1619C96.8139 42.6394 97.6462 45.8671 96.1688 48.3713L96.3411 48.4729ZM96.3058 48.336L87.0651 42.8839L86.9634 43.0562L96.2041 48.5082L96.3058 48.336ZM84.5166 41.4964C86.836 37.5653 91.9031 36.2587 95.8342 38.5781L95.9358 38.4059C91.9096 36.0304 86.7199 37.3686 84.3443 41.3948L84.5166 41.4964ZM95.8342 38.5781C99.7654 40.8975 101.072 45.9645 98.7526 49.8957L98.9249 49.9973C101.3 45.971 99.9621 40.7814 95.9358 38.4059L95.8342 38.5781ZM100.554 50.8424L98.8896 49.8604L98.788 50.0327L100.452 51.0146L100.554 50.8424ZM103.013 60.3798C104.968 57.067 103.867 52.7969 100.554 50.8424L100.452 51.0146C103.67 52.913 104.739 57.0605 102.841 60.2782L103.013 60.3798ZM97.7809 69.2482L103.013 60.3798L102.841 60.2782L97.6087 69.1465L97.7809 69.2482ZM88.2435 71.7075C91.5563 73.6621 95.8263 72.561 97.7809 69.2482L97.6087 69.1465C95.7102 72.3642 91.5628 73.4337 88.3451 71.5352L88.2435 71.7075ZM70.5067 61.2428L88.2435 71.7075L88.3451 71.5352L70.6083 61.0706L70.5067 61.2428ZM68.0474 51.7054C66.0928 55.0182 67.1939 59.2882 70.5067 61.2428L70.6083 61.0706C67.3907 59.1721 66.3212 55.0247 68.2196 51.807L68.0474 51.7054ZM73.2797 42.837L68.0474 51.7054L68.2196 51.807L73.452 42.9386L73.2797 42.837ZM82.8172 40.3777C79.5043 38.4231 75.2343 39.5242 73.2797 42.837L73.452 42.9386C75.3504 39.7209 79.4978 38.6515 82.7155 40.5499L82.8172 40.3777ZM84.4813 41.3595L82.8172 40.3777L82.7155 40.5499L84.3796 41.5317L84.4813 41.3595ZM97.9377 55.2765L80.201 44.8119L80.0994 44.9841L97.8361 55.4488L97.9377 55.2765ZM98.5791 57.7636C99.0887 56.8997 98.8016 55.7862 97.9377 55.2765L97.8361 55.4488C98.6049 55.9024 98.8604 56.8932 98.4068 57.662L98.5791 57.7636ZM93.3467 66.632L98.5791 57.7636L98.4068 57.662L93.1745 66.5304L93.3467 66.632ZM90.8596 67.2733C91.7235 67.783 92.837 67.4959 93.3467 66.632L93.1745 66.5304C92.7209 67.2991 91.73 67.5546 90.9613 67.1011L90.8596 67.2733ZM73.1229 56.8086L90.8596 67.2733L90.9613 67.1011L73.2245 56.6364L73.1229 56.8086ZM72.4816 54.3215C71.9719 55.1854 72.259 56.2989 73.1229 56.8086L73.2245 56.6364C72.4558 56.1828 72.2003 55.1919 72.6538 54.4232L72.4816 54.3215ZM77.7139 45.4532L72.4816 54.3215L72.6538 54.4232L77.8862 45.5548L77.7139 45.4532ZM80.201 44.8119C79.3371 44.3022 78.2236 44.5893 77.7139 45.4532L77.8862 45.5548C78.3397 44.7861 79.3306 44.5305 80.0994 44.9841L80.201 44.8119Z" fill="url(#paint2_linear_1378_585)" fill-opacity="0.5"/>
<defs>
<filter id="filter0_b_1378_585" x="15.7949" y="-16.426" width="107.936" height="118.991" filterUnits="userSpaceOnUse" color-interpolation-filters="sRGB">
<feFlood flood-opacity="0" result="BackgroundImageFix"/>
<feGaussianBlur in="BackgroundImageFix" stdDeviation="7.5"/>
<feComposite in2="SourceAlpha" operator="in" result="effect1_backgroundBlur_1378_585"/>
<feBlend mode="normal" in="SourceGraphic" in2="effect1_backgroundBlur_1378_585" result="shape"/>
</filter>
<filter id="filter1_b_1378_585" x="33.1191" y="-8.72461" width="115.243" height="120.058" filterUnits="userSpaceOnUse" color-interpolation-filters="sRGB">
<feFlood flood-opacity="0" result="BackgroundImageFix"/>
<feGaussianBlur in="BackgroundImageFix" stdDeviation="7.5"/>
<feComposite in2="SourceAlpha" operator="in" result="effect1_backgroundBlur_1378_585"/>
<feBlend mode="normal" in="SourceGraphic" in2="effect1_backgroundBlur_1378_585" result="shape"/>
</filter>
<linearGradient id="paint0_linear_1378_585" x1="133.402" y1="39.2087" x2="77.6844" y2="116.256" gradientUnits="userSpaceOnUse">
<stop stop-color="white" stop-opacity="0.48"/>
<stop offset="1" stop-color="white" stop-opacity="0"/>
</linearGradient>
<linearGradient id="paint1_linear_1378_585" x1="70.5948" y1="2.55462" x2="45.5807" y2="18.1729" gradientUnits="userSpaceOnUse">
<stop stop-color="white"/>
<stop offset="1" stop-color="white" stop-opacity="0.2"/>
<stop offset="1" stop-color="white" stop-opacity="0"/>
</linearGradient>
<linearGradient id="paint2_linear_1378_585" x1="78.9415" y1="67.2094" x2="90.2391" y2="38.2796" gradientUnits="userSpaceOnUse">
<stop stop-color="white"/>
<stop offset="1" stop-color="white" stop-opacity="0"/>
</linearGradient>
</defs>
</svg>
