<svg width="134" height="137" viewBox="0 0 134 137" fill="none" xmlns="http://www.w3.org/2000/svg">
<path d="M93.4936 -23.0732L74.8588 -25.6554C73.7646 -25.807 72.7548 -25.043 72.6032 -23.9489L70.021 -5.314C69.9482 -4.78859 69.6696 -4.31362 69.2466 -3.99358L53.197 8.14944C52.3161 8.81589 52.1423 10.0702 52.8088 10.9511L64.9518 27.0007C65.2718 27.4237 65.4107 27.9565 65.3379 28.482L62.7557 47.1168C62.6041 48.2109 63.3681 49.2208 64.4623 49.3724L83.0971 51.9546C83.6225 52.0274 84.0975 52.306 84.4175 52.729L96.5606 68.7786C97.227 69.6594 98.4814 69.8333 99.3622 69.1668L115.412 57.0238C115.835 56.7038 116.368 56.5649 116.893 56.6377L135.528 59.2199C136.622 59.3715 137.632 58.6074 137.784 57.5133L140.366 38.8784C140.439 38.353 140.717 37.8781 141.14 37.558L157.19 25.415C158.071 24.7486 158.244 23.4942 157.578 22.6134L145.435 6.56372C145.115 6.14072 144.976 5.60791 145.049 5.08249L147.631 -13.5524C147.783 -14.6465 147.019 -15.6563 145.924 -15.808L127.29 -18.3902C126.764 -18.463 126.289 -18.7415 125.969 -19.1645L113.826 -35.2141C113.16 -36.095 111.905 -36.2688 111.024 -35.6024L94.9748 -23.4593C94.5518 -23.1393 94.019 -23.0004 93.4936 -23.0732Z" fill="#1AC7BF"/>
<g filter="url(#filter0_b_1378_469)">
<path d="M90.7402 -5.07972L70.7289 -11.5171C69.6774 -11.8554 68.5508 -11.2772 68.2125 -10.2257L61.7751 9.78563C61.6127 10.2906 61.2563 10.7103 60.7844 10.9525L40.7953 21.2113C39.8126 21.7156 39.4248 22.9211 39.9291 23.9038L50.1879 43.893C50.4301 44.3649 50.4749 44.9137 50.3124 45.4186L43.8751 65.4299C43.5368 66.4814 44.115 67.608 45.1665 67.9463L65.1778 74.3837C65.6828 74.5461 66.1025 74.9025 66.3447 75.3744L76.6035 95.3636C77.1078 96.3463 78.3133 96.7341 79.296 96.2297L99.2851 85.9709C99.7571 85.7287 100.306 85.6839 100.811 85.8464L120.822 92.2838C121.874 92.622 123 92.0438 123.338 90.9923L129.776 70.981C129.938 70.4761 130.295 70.0563 130.767 69.8141L150.756 59.5554C151.738 59.051 152.126 57.8455 151.622 56.8628L141.363 36.8737C141.121 36.4018 141.076 35.853 141.239 35.348L147.676 15.3367C148.014 14.2852 147.436 13.1586 146.384 12.8204L126.373 6.38297C125.868 6.22054 125.449 5.86416 125.206 5.39225L114.948 -14.5969C114.443 -15.5796 113.238 -15.9674 112.255 -15.4631L92.2659 -5.20429C91.7939 -4.9621 91.2451 -4.91729 90.7402 -5.07972Z" fill="#38CAC4" fill-opacity="0.2"/>
<path d="M90.8933 -5.5557L70.882 -11.9931C69.5676 -12.4159 68.1594 -11.6932 67.7365 -10.3788L61.2992 9.63251C61.1773 10.0112 60.9101 10.326 60.5561 10.5077L40.567 20.7664C39.3386 21.3969 38.8538 22.9037 39.4843 24.1321L49.743 44.1213C49.9247 44.4752 49.9583 44.8868 49.8365 45.2655L43.3991 65.2768C42.9763 66.5912 43.699 67.9995 45.0134 68.4223L65.0247 74.8597C65.4034 74.9815 65.7182 75.2488 65.8998 75.6027L76.1586 95.5919C76.789 96.8202 78.2959 97.305 79.5243 96.6745L99.5134 86.4158C99.8674 86.2341 100.279 86.2005 100.658 86.3224L120.669 92.7597C121.983 93.1826 123.392 92.4598 123.814 91.1454L130.252 71.1341C130.374 70.7554 130.641 70.4406 130.995 70.259L150.984 60.0002C152.212 59.3698 152.697 57.8629 152.067 56.6345L141.808 36.6454C141.626 36.2914 141.593 35.8799 141.715 35.5011L148.152 15.4899C148.575 14.1755 147.852 12.7672 146.538 12.3444L126.526 5.90699C126.148 5.78517 125.833 5.51789 125.651 5.16395L115.392 -14.8252C114.762 -16.0536 113.255 -16.5383 112.027 -15.9079L92.0376 -5.64913C91.6836 -5.46748 91.272 -5.43387 90.8933 -5.5557Z" stroke="url(#paint0_linear_1378_469)"/>
</g>
<defs>
<filter id="filter0_b_1378_469" x="26.708" y="-28.6843" width="138.135" height="138.135" filterUnits="userSpaceOnUse" color-interpolation-filters="sRGB">
<feFlood flood-opacity="0" result="BackgroundImageFix"/>
<feGaussianBlur in="BackgroundImageFix" stdDeviation="6"/>
<feComposite in2="SourceAlpha" operator="in" result="effect1_backgroundBlur_1378_469"/>
<feBlend mode="normal" in="SourceGraphic" in2="effect1_backgroundBlur_1378_469" result="shape"/>
</filter>
<linearGradient id="paint0_linear_1378_469" x1="175.531" y1="63.0863" x2="46.3548" y2="114.846" gradientUnits="userSpaceOnUse">
<stop stop-color="white" stop-opacity="0.48"/>
<stop offset="1" stop-color="white" stop-opacity="0"/>
</linearGradient>
</defs>
</svg>
