<svg width="32" height="32" viewBox="0 0 32 32" fill="none" xmlns="http://www.w3.org/2000/svg">
<g clip-path="url(#clip0)">
<path d="M29.6921 0H2.30786C1.0332 0 0 1.02027 0 2.27896V29.3204C0 30.5791 1.0332 31.5993 2.30786 31.5993H17.0938V19.3793H12.9375V14.5962H17.0938V11.0761C17.0938 6.99408 19.6174 4.77225 23.3049 4.77225C25.071 4.77225 26.5889 4.9022 27.0312 4.9603V9.22676H24.4885C22.4822 9.22676 22.0938 10.1682 22.0938 11.5498V14.5962H26.8906L26.2656 19.3793H22.0938V31.5993H29.6921C30.9668 31.5993 32 30.5791 32 29.3204V2.27896C32 1.02027 30.9668 0 29.6921 0V0Z" fill="#01CAB0"/>
</g>
<defs>
<clipPath id="clip0">
<rect width="32" height="31.5993" rx="4" fill="white"/>
</clipPath>
</defs>
</svg>
