<svg width="22" height="22" viewBox="0 0 22 22" fill="none" xmlns="http://www.w3.org/2000/svg">
<g clip-path="url(#clip0_558_670)">
<path fill-rule="evenodd" clip-rule="evenodd" d="M11 1C11.2968 1 11.5782 1.13182 11.7682 1.35982L16.4684 7H21C21.3049 7 21.5931 7.13907 21.7828 7.37772C21.9725 7.61636 22.043 7.92852 21.9742 8.22553L19.7603 17.7894C19.6266 18.6272 19.2769 19.4231 18.7223 20.0221C18.1563 20.6333 17.3897 21.0176 16.5435 20.9994H5.4565C4.6103 21.0176 3.84371 20.6333 3.27769 20.0221C2.7231 19.4231 2.37346 18.6272 2.23974 17.7894L0.0257726 8.22553C-0.0429835 7.92852 0.0275035 7.61636 0.217216 7.37772C0.406929 7.13907 0.695143 7 1.00001 7H5.53163L10.2318 1.35982C10.4218 1.13182 10.7032 1 11 1ZM16.0076 9H15.9935H6.00649H5.99245H2.25795L4.19647 17.374C4.2023 17.3992 4.20715 17.4246 4.21101 17.4502C4.29 17.9731 4.49663 18.3948 4.74518 18.6632C4.98786 18.9253 5.22969 19.0049 5.41724 18.9998L5.42755 18.9995L5.44445 18.9994H16.5556C16.5646 18.9994 16.5737 18.9995 16.5828 18.9998C16.7703 19.0049 17.0122 18.9253 17.2548 18.6632C17.5034 18.3948 17.71 17.9731 17.789 17.4502C17.7929 17.4246 17.7977 17.3992 17.8036 17.374L19.7421 9H16.0076ZM11 3.56205L13.865 7H8.13505L11 3.56205ZM10 14C10 13.4477 10.4477 13 11 13C11.5523 13 12 13.4477 12 14C12 14.5523 11.5523 15 11 15C10.4477 15 10 14.5523 10 14ZM11 11C9.34315 11 8.00001 12.3431 8.00001 14C8.00001 15.6569 9.34315 17 11 17C12.6569 17 14 15.6569 14 14C14 12.3431 12.6569 11 11 11Z" fill="#040415"/>
</g>
<defs>
<clipPath id="clip0_558_670">
<rect width="22" height="22" fill="white"/>
</clipPath>
</defs>
</svg>
