<svg width="22" height="22" viewBox="0 0 22 22" fill="none" xmlns="http://www.w3.org/2000/svg">
<g clip-path="url(#clip0_558_635)">
<path d="M10 6.5C11.2426 6.5 12.25 5.49264 12.25 4.25C12.25 3.00736 11.2426 2 10 2C8.75736 2 7.75 3.00736 7.75 4.25C7.75 5.49264 8.75736 6.5 10 6.5Z" fill="black"/>
<path d="M3.25 20C4.49264 20 5.5 18.9926 5.5 17.75C5.5 16.5074 4.49264 15.5 3.25 15.5C2.00736 15.5 1 16.5074 1 17.75C1 18.9926 2.00736 20 3.25 20Z" fill="black"/>
<path d="M3.25 13.25C4.49264 13.25 5.5 12.2426 5.5 11C5.5 9.75736 4.49264 8.75 3.25 8.75C2.00736 8.75 1 9.75736 1 11C1 12.2426 2.00736 13.25 3.25 13.25Z" fill="black"/>
<path d="M3.25 6.5C4.49264 6.5 5.5 5.49264 5.5 4.25C5.5 3.00736 4.49264 2 3.25 2C2.00736 2 1 3.00736 1 4.25C1 5.49264 2.00736 6.5 3.25 6.5Z" fill="black"/>
<path d="M16.75 6.5C17.9926 6.5 19 5.49264 19 4.25C19 3.00736 17.9926 2 16.75 2C15.5074 2 14.5 3.00736 14.5 4.25C14.5 5.49264 15.5074 6.5 16.75 6.5Z" fill="black"/>
<path d="M8.875 17.8287V19.4375C8.875 19.7525 9.1225 20 9.4375 20H11.0125C11.1587 20 11.305 19.9437 11.4062 19.8312L17.965 13.2725L15.58 10.8875L9.04375 17.4237C8.93125 17.5362 8.875 17.6825 8.875 17.8287ZM10.0337 13.25L12.25 11.0338V11C12.25 9.7625 11.2375 8.75 10 8.75C8.7625 8.75 7.75 9.7625 7.75 11C7.75 12.2375 8.7625 13.25 10 13.25H10.0337ZM19.9563 10.505L18.37 8.91875C18.145 8.69375 17.7962 8.69375 17.5712 8.91875L16.3787 10.1113L18.7638 12.4963L19.9563 11.3038C20.1813 11.0788 20.1813 10.73 19.9563 10.505Z" fill="black"/>
</g>
<defs>
<clipPath id="clip0_558_635">
<rect width="22" height="22" fill="white"/>
</clipPath>
</defs>
</svg>
