<svg width="28" height="28" viewBox="0 0 28 28" fill="none" xmlns="http://www.w3.org/2000/svg">
<path d="M11.6669 0.666626C11.9086 0.666636 12.142 0.754149 12.3242 0.912982C12.5063 1.07181 12.6247 1.29122 12.6576 1.53063L12.6669 1.66663V8.05863C14.5187 8.28254 16.2418 9.12094 17.5609 10.4397C18.8799 11.7585 19.7187 13.4816 19.9429 15.3333H26.3349C26.5883 15.3334 26.8322 15.4296 27.0173 15.6026C27.2024 15.7756 27.315 16.0124 27.3323 16.2651C27.3495 16.5179 27.2702 16.7678 27.1103 16.9644C26.9504 17.1609 26.7219 17.2894 26.4709 17.324L26.3349 17.3333H19.9429C19.7187 19.185 18.8799 20.908 17.5609 22.2268C16.2418 23.5456 14.5187 24.384 12.6669 24.608V26.3346C12.6695 26.5898 12.5745 26.8363 12.4012 27.0237C12.228 27.211 11.9897 27.3251 11.7351 27.3425C11.4805 27.3599 11.2289 27.2792 11.0318 27.1172C10.8347 26.9551 10.707 26.7238 10.6749 26.4706L10.6669 26.3333V24.6066C8.81603 24.3823 7.09377 23.544 5.7753 22.2258C4.45683 20.9076 3.61826 19.1855 3.39358 17.3346H1.66691C1.41174 17.3372 1.16523 17.2422 0.977865 17.0689C0.790496 16.8957 0.676444 16.6574 0.659062 16.4028C0.641681 16.1482 0.722285 15.8966 0.88437 15.6995C1.04645 15.5024 1.27776 15.3747 1.53091 15.3426L1.66691 15.3333H3.39224C3.61643 13.4818 4.45495 11.7589 5.77374 10.4401C7.09252 9.12134 8.8154 8.28282 10.6669 8.05863V1.66663C10.6669 1.40141 10.7723 1.14706 10.9598 0.959519C11.1473 0.771983 11.4017 0.666626 11.6669 0.666626ZM10.6669 17.3333H5.41224C5.62333 18.651 6.24491 19.8685 7.18843 20.8122C8.13195 21.756 9.34926 22.3779 10.6669 22.5893V17.3333ZM17.9216 17.3333H12.6669V22.588C13.9842 22.3767 15.2012 21.7552 16.1447 20.812C17.0882 19.8687 17.71 18.6518 17.9216 17.3346V17.3333ZM10.6682 10.0773C9.35011 10.2882 8.1322 10.9099 7.18816 11.8537C6.24413 12.7975 5.62215 14.0152 5.41091 15.3333H10.6669V10.0773H10.6682ZM12.6682 10.0773L12.6669 15.3333H17.9229C17.7194 14.0649 17.1354 12.8882 16.2482 11.9591C15.3611 11.0301 14.2126 10.3924 12.9549 10.1306L12.6669 10.0773H12.6682Z" fill="#22201E"/>
</svg>
