<svg width="20" height="24" viewBox="0 0 20 24" fill="none" xmlns="http://www.w3.org/2000/svg">
<path d="M18 24C18 24 20 24 20 22C20 20 18 14 10 14C2 14 0 20 0 22C0 24 2 24 2 24H18ZM2.044 22C2.02923 21.998 2.01455 21.9953 2 21.992C2.002 21.464 2.334 19.932 3.52 18.552C4.624 17.258 6.564 16 10 16C13.434 16 15.374 17.26 16.48 18.552C17.666 19.932 17.996 21.466 18 21.992L17.984 21.996C17.9747 21.9976 17.9654 21.9989 17.956 22H2.044ZM10 10C11.0609 10 12.0783 9.57857 12.8284 8.82843C13.5786 8.07828 14 7.06087 14 6C14 4.93913 13.5786 3.92172 12.8284 3.17157C12.0783 2.42143 11.0609 2 10 2C8.93913 2 7.92172 2.42143 7.17157 3.17157C6.42143 3.92172 6 4.93913 6 6C6 7.06087 6.42143 8.07828 7.17157 8.82843C7.92172 9.57857 8.93913 10 10 10ZM16 6C16 6.78793 15.8448 7.56815 15.5433 8.2961C15.2417 9.02405 14.7998 9.68549 14.2426 10.2426C13.6855 10.7998 13.0241 11.2417 12.2961 11.5433C11.5681 11.8448 10.7879 12 10 12C9.21207 12 8.43185 11.8448 7.7039 11.5433C6.97595 11.2417 6.31451 10.7998 5.75736 10.2426C5.20021 9.68549 4.75825 9.02405 4.45672 8.2961C4.15519 7.56815 4 6.78793 4 6C4 4.4087 4.63214 2.88258 5.75736 1.75736C6.88258 0.632141 8.4087 0 10 0C11.5913 0 13.1174 0.632141 14.2426 1.75736C15.3679 2.88258 16 4.4087 16 6Z" fill="#22201E"/>
</svg>
