<svg width="32" height="32" viewBox="0 0 32 32" fill="none" xmlns="http://www.w3.org/2000/svg">
<path d="M27.9996 24.3348C27.9996 23.9409 27.922 23.5509 27.7712 23.187C27.6204 22.823 27.3994 22.4924 27.1208 22.2139C26.8422 21.9355 26.5115 21.7146 26.1475 21.564C25.7836 21.4134 25.3935 21.336 24.9996 21.3361H6.99959C6.6058 21.3361 6.21586 21.4137 5.85205 21.5644C5.48823 21.7151 5.15766 21.936 4.87921 22.2144C4.60076 22.4929 4.37988 22.8234 4.22918 23.1873C4.07849 23.5511 4.00092 23.941 4.00092 24.3348C4.00092 24.7286 4.07849 25.1185 4.22918 25.4823C4.37988 25.8462 4.60076 26.1767 4.87921 26.4552C5.15766 26.7336 5.48823 26.9545 5.85205 27.1052C6.21586 27.2559 6.6058 27.3335 6.99959 27.3335H24.9996C25.3935 27.3336 25.7836 27.2562 26.1475 27.1056C26.5115 26.955 26.8422 26.7341 27.1208 26.4556C27.3994 26.1772 27.6204 25.8465 27.7712 25.4826C27.922 25.1187 27.9996 24.7287 27.9996 24.3348ZM22.6663 15.6681C22.6663 15.2742 22.5886 14.8842 22.4379 14.5203C22.2871 14.1564 22.0661 13.8258 21.7875 13.5473C21.5089 13.2688 21.1782 13.048 20.8142 12.8973C20.4502 12.7467 20.0602 12.6693 19.6663 12.6695H6.99959C6.59827 12.6575 6.19864 12.7262 5.82437 12.8715C5.45009 13.0168 5.10879 13.2358 4.82069 13.5154C4.5326 13.7951 4.30356 14.1297 4.14715 14.4995C3.99075 14.8692 3.91016 15.2666 3.91016 15.6681C3.91016 16.0696 3.99075 16.467 4.14715 16.8368C4.30356 17.2066 4.5326 17.5412 4.82069 17.8208C5.10879 18.1005 5.45009 18.3194 5.82437 18.4647C6.19864 18.6101 6.59827 18.6788 6.99959 18.6668H19.6663C20.0602 18.667 20.4502 18.5895 20.8142 18.4389C21.1782 18.2883 21.5089 18.0675 21.7875 17.789C22.0661 17.5105 22.2871 17.1799 22.4379 16.816C22.5886 16.4521 22.6663 16.062 22.6663 15.6681ZM17.3329 7.00146C17.3329 6.20582 17.0169 5.44275 16.4542 4.88014C15.8916 4.31754 15.1286 4.00146 14.3329 4.00146L6.99959 4.0028C6.21977 4.02606 5.47969 4.35218 4.93631 4.912C4.39294 5.47182 4.08902 6.2213 4.08902 7.00146C4.08902 7.78163 4.39294 8.53111 4.93631 9.09093C5.47969 9.65075 6.21977 9.97687 6.99959 10.0001H14.3329C15.1283 10.0001 15.8912 9.68424 16.4538 9.12192C17.0163 8.5596 17.3326 7.79688 17.3329 7.00146ZM25.9996 24.3348C25.9996 24.6 25.8942 24.8544 25.7067 25.0419C25.5192 25.2294 25.2648 25.3348 24.9996 25.3348H6.99959C6.74087 25.3253 6.49589 25.2159 6.3162 25.0295C6.1365 24.8432 6.0361 24.5944 6.0361 24.3355C6.0361 24.0766 6.1365 23.8278 6.3162 23.6414C6.49589 23.455 6.74087 23.3456 6.99959 23.3361H24.9996C25.5529 23.3361 25.9996 23.7828 25.9996 24.3348ZM20.6663 15.6681C20.6663 15.9333 20.5609 16.1877 20.3734 16.3752C20.1858 16.5628 19.9315 16.6681 19.6663 16.6681H6.99959C6.74087 16.6587 6.49589 16.5493 6.3162 16.3629C6.1365 16.1765 6.0361 15.9277 6.0361 15.6688C6.0361 15.4099 6.1365 15.1611 6.3162 14.9747C6.49589 14.7883 6.74087 14.6789 6.99959 14.6695H19.6663C20.2196 14.6695 20.6663 15.1161 20.6663 15.6681ZM15.3329 7.00146C15.3329 7.26668 15.2276 7.52104 15.04 7.70857C14.8525 7.89611 14.5981 8.00146 14.3329 8.00146H6.99959C6.73437 8.00146 6.48002 7.89611 6.29248 7.70857C6.10495 7.52104 5.99959 7.26668 5.99959 7.00146C5.99959 6.73625 6.10495 6.48189 6.29248 6.29436C6.48002 6.10682 6.73437 6.00146 6.99959 6.00146H14.3329C14.5981 6.00146 14.8525 6.10682 15.04 6.29436C15.2276 6.48189 15.3329 6.73625 15.3329 7.00146Z" fill="#22201E"/>
</svg>
