<svg width="32" height="32" viewBox="0 0 32 32" fill="none" xmlns="http://www.w3.org/2000/svg">
<path d="M3.99967 1.3335C2.51967 1.3335 1.33301 2.52016 1.33301 4.00016V6.66683H3.99967V4.00016H6.66634V1.3335H3.99967ZM9.33301 1.3335V4.00016H13.333V1.3335H9.33301ZM15.9997 1.3335V4.00016H18.6663V6.66683H21.333V4.00016C21.333 2.52016 20.1463 1.3335 18.6663 1.3335H15.9997ZM1.33301 9.3335V13.3335H3.99967V9.3335H1.33301ZM18.6663 9.3335V18.6668H9.33301V26.6668C9.33301 28.1468 10.5197 29.3335 11.9997 29.3335H26.6663C28.1463 29.3335 29.333 28.1468 29.333 26.6668V12.0002C29.333 10.5202 28.1463 9.3335 26.6663 9.3335H18.6663ZM21.333 12.0002H26.6663V26.6668H11.9997V21.3335H18.6663C20.1463 21.3335 21.333 20.1468 21.333 18.6668V12.0002ZM1.33301 16.0002V18.6668C1.33301 20.1468 2.51967 21.3335 3.99967 21.3335H6.66634V18.6668H3.99967V16.0002H1.33301Z" fill="#22201E"/>
</svg>
