<svg width="32" height="32" viewBox="0 0 32 32" fill="none" xmlns="http://www.w3.org/2000/svg">
<path d="M10.128 20.4667C10.3176 20.29 10.5683 20.1939 10.8274 20.1984C11.0864 20.203 11.3336 20.308 11.5168 20.4912C11.7 20.6744 11.805 20.9216 11.8096 21.1806C11.8141 21.4397 11.718 21.6904 11.5413 21.88L7.41467 26.0053H10.3333C10.575 26.0053 10.8085 26.0929 10.9906 26.2517C11.1727 26.4105 11.2911 26.6299 11.324 26.8693L11.3333 27.0053C11.3333 27.2705 11.228 27.5249 11.0404 27.7124C10.8529 27.9 10.5985 28.0053 10.3333 28.0053H5C4.73478 28.0053 4.48043 27.9 4.29289 27.7124C4.10536 27.5249 4 27.2705 4 27.0053V21.672C4 21.4068 4.10536 21.1524 4.29289 20.9649C4.48043 20.7774 4.73478 20.672 5 20.672C5.26522 20.672 5.51957 20.7774 5.70711 20.9649C5.89464 21.1524 6 21.4068 6 21.672V24.592L10.128 20.4667ZM21.6733 28.0053C21.4081 28.0053 21.1538 27.9 20.9662 27.7124C20.7787 27.5249 20.6733 27.2705 20.6733 27.0053C20.6733 26.7401 20.7787 26.4858 20.9662 26.2982C21.1538 26.1107 21.4081 26.0053 21.6733 26.0053H24.588L20.4667 21.88C20.2973 21.7107 20.1943 21.4862 20.1765 21.2474C20.1586 21.0086 20.227 20.7713 20.3693 20.5787L20.4667 20.4667C20.6542 20.2794 20.9083 20.1742 21.1733 20.1742C21.4383 20.1742 21.6925 20.2794 21.88 20.4667L26.0067 24.5947V21.672C26.0067 21.4303 26.0942 21.1969 26.253 21.0148C26.4119 20.8326 26.6313 20.7142 26.8707 20.6813L27.0067 20.672C27.2719 20.672 27.5262 20.7774 27.7138 20.9649C27.9013 21.1524 28.0067 21.4068 28.0067 21.672V27.0053C28.0067 27.2705 27.9013 27.5249 27.7138 27.7124C27.5262 27.9 27.2719 28.0053 27.0067 28.0053H21.6733ZM10.3333 4C10.5985 4 10.8529 4.10536 11.0404 4.29289C11.228 4.48043 11.3333 4.73478 11.3333 5C11.3333 5.26522 11.228 5.51957 11.0404 5.70711C10.8529 5.89464 10.5985 6 10.3333 6H7.41733L11.5413 10.1267C11.7105 10.2962 11.8132 10.5207 11.8308 10.7595C11.8484 10.9983 11.7798 11.2355 11.6373 11.428L11.54 11.5413C11.3525 11.7286 11.0983 11.8338 10.8333 11.8338C10.5683 11.8338 10.3142 11.7286 10.1267 11.5413L6 7.40933V10.3333C5.99999 10.575 5.91248 10.8085 5.75364 10.9906C5.59481 11.1727 5.3754 11.2911 5.136 11.324L5 11.3333C4.73478 11.3333 4.48043 11.228 4.29289 11.0404C4.10536 10.8529 4 10.5985 4 10.3333V5C4 4.73478 4.10536 4.48043 4.29289 4.29289C4.48043 4.10536 4.73478 4 5 4H10.3333ZM27.0067 4C27.2719 4 27.5262 4.10536 27.7138 4.29289C27.9013 4.48043 28.0067 4.73478 28.0067 5V10.3333C28.0067 10.5985 27.9013 10.8529 27.7138 11.0404C27.5262 11.228 27.2719 11.3333 27.0067 11.3333C26.7414 11.3333 26.4871 11.228 26.2996 11.0404C26.112 10.8529 26.0067 10.5985 26.0067 10.3333V7.412L21.88 11.54C21.7107 11.7094 21.4862 11.8123 21.2474 11.8302C21.0086 11.8481 20.7713 11.7796 20.5787 11.6373L20.4667 11.54C20.2794 11.3525 20.1742 11.0983 20.1742 10.8333C20.1742 10.5683 20.2794 10.3142 20.4667 10.1267L24.5893 6H21.6733C21.4317 5.99999 21.1982 5.91248 21.0161 5.75364C20.834 5.59481 20.7155 5.3754 20.6827 5.136L20.6733 5C20.6733 4.73478 20.7787 4.48043 20.9662 4.29289C21.1538 4.10536 21.4081 4 21.6733 4H27.0067Z" fill="#22201E"/>
</svg>
