<svg width="28" height="29" viewBox="0 0 28 29" fill="none" xmlns="http://www.w3.org/2000/svg">
<path d="M24 20C23.2879 20.0037 22.59 20.1996 21.98 20.567L18.167 16.753C18.7103 15.9376 19.0001 14.9798 19.0001 14C19.0001 13.0202 18.7103 12.0624 18.167 11.247L20.714 8.7C21.3583 9.01035 22.0917 9.08263 22.7842 8.90405C23.4767 8.72546 24.0836 8.30753 24.4975 7.7243C24.9113 7.14106 25.1054 6.43016 25.0453 5.71753C24.9852 5.00491 24.6748 4.33655 24.1691 3.83086C23.6635 3.32517 22.9951 3.01478 22.2825 2.95469C21.5698 2.89459 20.8589 3.08867 20.2757 3.50253C19.6925 3.91639 19.2745 4.52334 19.096 5.21584C18.9174 5.90833 18.9897 6.64169 19.3 7.286L16.753 9.833C15.9376 9.28974 14.9798 8.99986 14 8.99986C13.0202 8.99986 12.0624 9.28974 11.247 9.833L7.433 6.019C7.80024 5.40928 7.99612 4.71176 8 4C8 3.20888 7.76541 2.43552 7.32588 1.77772C6.88635 1.11992 6.26164 0.607234 5.53074 0.304484C4.79983 0.00173312 3.99556 -0.0774802 3.21964 0.0768607C2.44372 0.231202 1.73098 0.612165 1.17157 1.17157C0.612165 1.73098 0.231202 2.44372 0.0768607 3.21964C-0.0774802 3.99556 0.00173312 4.79983 0.304484 5.53074C0.607234 6.26164 1.11992 6.88635 1.77772 7.32588C2.43552 7.76541 3.20888 8 4 8C4.7121 7.9963 5.40999 7.80041 6.02 7.433L9.833 11.247C9.28974 12.0624 8.99986 13.0202 8.99986 14C8.99986 14.9798 9.28974 15.9376 9.833 16.753L6.019 20.567C5.40926 20.1998 4.71175 20.0039 4 20C3.20888 20 2.43552 20.2346 1.77772 20.6741C1.11992 21.1136 0.607234 21.7384 0.304484 22.4693C0.00173312 23.2002 -0.0774802 24.0044 0.0768607 24.7804C0.231202 25.5563 0.612165 26.269 1.17157 26.8284C1.73098 27.3878 2.44372 27.7688 3.21964 27.9231C3.99556 28.0775 4.79983 27.9983 5.53074 27.6955C6.26164 27.3928 6.88635 26.8801 7.32588 26.2223C7.76541 25.5645 8 24.7911 8 24C7.9963 23.2879 7.80041 22.59 7.433 21.98L11.247 18.167C11.7788 18.5215 12.374 18.77 13 18.899V22.184C12.3328 22.4199 11.7704 22.8841 11.4124 23.4945C11.0543 24.1049 10.9235 24.8222 11.0432 25.5197C11.1629 26.2172 11.5253 26.85 12.0663 27.3061C12.6074 27.7622 13.2923 28.0124 14 28.0124C14.7077 28.0124 15.3926 27.7622 15.9337 27.3061C16.4747 26.85 16.8371 26.2172 16.9568 25.5197C17.0765 24.8222 16.9457 24.1049 16.5876 23.4945C16.2296 22.8841 15.6672 22.4199 15 22.184V18.899C15.626 18.77 16.2212 18.5215 16.753 18.167L20.567 21.981C20.1998 22.5907 20.0039 23.2882 20 24C20 24.7911 20.2346 25.5645 20.6741 26.2223C21.1136 26.8801 21.7384 27.3928 22.4693 27.6955C23.2002 27.9983 24.0044 28.0775 24.7804 27.9231C25.5563 27.7688 26.269 27.3878 26.8284 26.8284C27.3878 26.269 27.7688 25.5563 27.9231 24.7804C28.0775 24.0044 27.9983 23.2002 27.6955 22.4693C27.3928 21.7384 26.8801 21.1136 26.2223 20.6741C25.5645 20.2346 24.7911 20 24 20ZM14 11C14.5933 11 15.1734 11.1759 15.6667 11.5056C16.1601 11.8352 16.5446 12.3038 16.7716 12.852C16.9987 13.4001 17.0581 14.0033 16.9424 14.5853C16.8266 15.1672 16.5409 15.7018 16.1213 16.1213C15.7018 16.5409 15.1672 16.8266 14.5853 16.9424C14.0033 17.0581 13.4001 16.9987 12.852 16.7716C12.3038 16.5446 11.8352 16.1601 11.5056 15.6667C11.1759 15.1734 11 14.5933 11 14C11.0008 13.2046 11.3171 12.442 11.8796 11.8796C12.442 11.3171 13.2046 11.0008 14 11ZM2 4C2 3.60444 2.1173 3.21776 2.33706 2.88886C2.55683 2.55996 2.86918 2.30362 3.23463 2.15224C3.60009 2.00087 4.00222 1.96126 4.39018 2.03843C4.77814 2.1156 5.13451 2.30608 5.41422 2.58579C5.69392 2.86549 5.8844 3.22186 5.96157 3.60982C6.03874 3.99778 5.99914 4.39992 5.84776 4.76537C5.69639 5.13082 5.44004 5.44318 5.11114 5.66294C4.78224 5.8827 4.39556 6 4 6C3.46973 5.99947 2.96133 5.78859 2.58637 5.41363C2.21142 5.03867 2.00053 4.53027 2 4ZM4 26C3.60444 26 3.21776 25.8827 2.88886 25.6629C2.55996 25.4432 2.30362 25.1308 2.15224 24.7654C2.00087 24.3999 1.96126 23.9978 2.03843 23.6098C2.1156 23.2219 2.30608 22.8655 2.58579 22.5858C2.86549 22.3061 3.22186 22.1156 3.60982 22.0384C3.99778 21.9613 4.39992 22.0009 4.76537 22.1522C5.13082 22.3036 5.44318 22.56 5.66294 22.8889C5.8827 23.2178 6 23.6044 6 24C5.99947 24.5303 5.78859 25.0387 5.41363 25.4136C5.03867 25.7886 4.53027 25.9995 4 26ZM24 26C23.6044 26 23.2178 25.8827 22.8889 25.6629C22.56 25.4432 22.3036 25.1308 22.1522 24.7654C22.0009 24.3999 21.9613 23.9978 22.0384 23.6098C22.1156 23.2219 22.3061 22.8655 22.5858 22.5858C22.8655 22.3061 23.2219 22.1156 23.6098 22.0384C23.9978 21.9613 24.3999 22.0009 24.7654 22.1522C25.1308 22.3036 25.4432 22.56 25.6629 22.8889C25.8827 23.2178 26 23.6044 26 24C25.9992 24.5302 25.7882 25.0384 25.4133 25.4133C25.0384 25.7882 24.5302 25.9992 24 26Z" fill="#22201E"/>
</svg>
