<svg width="32" height="32" viewBox="0 0 32 32" fill="none" xmlns="http://www.w3.org/2000/svg">
<path d="M28 13H30V15H28V13ZM23.778 4.797L25.192 3.382L26.606 4.797L25.192 6.211L23.778 4.797ZM15 0H17V2H15V0ZM6.808 6.234L5.394 4.819L6.808 3.405L8.222 4.82L6.808 6.234ZM2 13H4V15H2V13ZM13 30H19V32H13V30ZM11 26H21V28H11V26ZM16 4C10.5 4 6 8.5 6 14C6 18.4 8 20.3 9.5 21.6C10.5 22.5 11 23.1 11 24H13C13 22.2 11.9 21.1 10.8 20.1C9.4 18.9 8 17.5 8 14C8 9.6 11.6 6 16 6C20.4 6 24 9.6 24 14C24 17.5 22.6 18.9 21.2 20.1C20.1 21.1 19 22.1 19 24H21C21 23.1 21.5 22.5 22.5 21.6C24 20.3 26 18.4 26 14C26 8.5 21.5 4 16 4Z" fill="#22201E"/>
</svg>
