<svg width="32" height="24" viewBox="0 0 32 24" fill="none" xmlns="http://www.w3.org/2000/svg">
<path d="M30 24C30 24 32 24 32 22C32 20 30 14 22 14C14 14 12 20 12 22C12 24 14 24 14 24H30ZM14.044 22C14.0292 21.998 14.0145 21.9953 14 21.992C14.002 21.464 14.334 19.932 15.52 18.552C16.624 17.258 18.564 16 22 16C25.434 16 27.374 17.26 28.48 18.552C29.666 19.932 29.996 21.466 30 21.992L29.984 21.996C29.9747 21.9976 29.9654 21.9989 29.956 22H14.044ZM22 10C23.0609 10 24.0783 9.57857 24.8284 8.82843C25.5786 8.07828 26 7.06087 26 6C26 4.93913 25.5786 3.92172 24.8284 3.17157C24.0783 2.42143 23.0609 2 22 2C20.9391 2 19.9217 2.42143 19.1716 3.17157C18.4214 3.92172 18 4.93913 18 6C18 7.06087 18.4214 8.07828 19.1716 8.82843C19.9217 9.57857 20.9391 10 22 10ZM28 6C28 6.78793 27.8448 7.56815 27.5433 8.2961C27.2417 9.02405 26.7998 9.68549 26.2426 10.2426C25.6855 10.7998 25.0241 11.2417 24.2961 11.5433C23.5681 11.8448 22.7879 12 22 12C21.2121 12 20.4319 11.8448 19.7039 11.5433C18.9759 11.2417 18.3145 10.7998 17.7574 10.2426C17.2002 9.68549 16.7583 9.02405 16.4567 8.2961C16.1552 7.56815 16 6.78793 16 6C16 4.4087 16.6321 2.88258 17.7574 1.75736C18.8826 0.632141 20.4087 0 22 0C23.5913 0 25.1174 0.632141 26.2426 1.75736C27.3679 2.88258 28 4.4087 28 6ZM13.872 14.56C13.072 14.3081 12.2473 14.1425 11.412 14.066C10.9427 14.0214 10.4715 13.9993 10 14C2 14 0 20 0 22C0 23.334 0.666 24 2 24H10.432C10.1355 23.3756 9.98765 22.6911 10 22C10 19.98 10.754 17.916 12.18 16.192C12.666 15.604 13.232 15.054 13.872 14.56ZM9.84 16C8.65631 17.7785 8.01688 19.8636 8 22H2C2 21.48 2.328 19.94 3.52 18.552C4.61 17.28 6.504 16.04 9.84 16.002V16ZM3 7C3 5.4087 3.63214 3.88258 4.75736 2.75736C5.88258 1.63214 7.4087 1 9 1C10.5913 1 12.1174 1.63214 13.2426 2.75736C14.3679 3.88258 15 5.4087 15 7C15 8.5913 14.3679 10.1174 13.2426 11.2426C12.1174 12.3679 10.5913 13 9 13C7.4087 13 5.88258 12.3679 4.75736 11.2426C3.63214 10.1174 3 8.5913 3 7ZM9 3C7.93913 3 6.92172 3.42143 6.17157 4.17157C5.42143 4.92172 5 5.93913 5 7C5 8.06087 5.42143 9.07828 6.17157 9.82843C6.92172 10.5786 7.93913 11 9 11C10.0609 11 11.0783 10.5786 11.8284 9.82843C12.5786 9.07828 13 8.06087 13 7C13 5.93913 12.5786 4.92172 11.8284 4.17157C11.0783 3.42143 10.0609 3 9 3Z" fill="#22201E"/>
</svg>
 