<svg width="307" height="153" viewBox="0 0 307 153" fill="none" xmlns="http://www.w3.org/2000/svg">
<path d="M246.111 44.9937H44.9834V262.186H262.131V44.9937H246.111ZM126.57 60.911H149.698V84.0707H126.57V60.911ZM91.877 60.911H107.287V138.057H168.981V60.911H215.317V76.3507H184.417V153.47H91.877V60.911ZM138.134 230.192V246.109H61.0301V60.9903H76.4403V168.99H199.828V91.8435H215.317V184.403H138.134V230.192ZM176.699 246.109H153.571V222.976H176.699V246.109ZM215.264 246.109H192.109V222.976H215.317L215.264 246.109ZM246.111 246.109H230.674V60.9903H246.111V246.109Z" fill="white"/>
<path d="M131.264 44.993L153.571 22.7088L175.85 44.993H198.528L164.896 11.3544L153.5 0L142.219 11.3544L108.587 44.993H131.264Z" fill="white"/>
<path d="M44.9839 175.887L22.6776 153.602L44.9839 131.292V108.609L11.3521 142.248L0 153.5L11.3521 164.93L44.9839 198.569V175.887Z" fill="white"/>
<path d="M295.764 142.248L262.132 108.609V131.292L284.438 153.602L262.132 175.887V198.569L295.764 164.93L307 153.5L295.764 142.248Z" fill="white"/>
</svg>
