<svg width="236" height="475" viewBox="0 0 236 475" fill="none" xmlns="http://www.w3.org/2000/svg">
<path d="M189.842 285.396H118.271V356.365H189.842V285.396Z" fill="white"/>
<path d="M380.792 69.6157H69.6006V405.662H405.579V69.6157H380.792ZM195.833 94.2435H231.619V130.077H195.833V94.2435ZM142.156 94.2435H165.999V213.606H261.453V94.2435H333.147V118.132H285.337V237.454H142.156V94.2435ZM213.726 356.16V380.788H94.4286V94.3663H118.272V261.466H309.18V142.103H333.147V285.314H213.726V356.16ZM273.395 380.788H237.61V344.995H273.395V380.788ZM333.064 380.788H297.238V344.995H333.147L333.064 380.788ZM380.792 380.788H356.908V94.3663H380.792V380.788Z" fill="white"/>
<path d="M203.097 69.6147L237.61 35.1357L272.082 69.6147H307.17L255.133 17.5679L237.5 0L220.046 17.5679L168.01 69.6147H203.097Z" fill="white"/>
<path d="M69.6004 272.137L35.0875 237.658L69.6004 203.138V168.044L17.5643 220.09L0 237.5L17.5643 255.185L69.6004 307.232V272.137Z" fill="white"/>
<path d="M272.082 405.662L237.61 440.182L203.097 405.662H168.01L220.046 457.709L237.5 475L255.133 457.709L307.17 405.662H272.082Z" fill="white"/>
</svg>
